# xmcd
#
# Track frame offsets:
#	150
#	8594
#	27394
#	43675
#	60297
#	86650
#	104310
#	123137
#	142953
#	146851
#	164514
#	180188
#	199833
#	220240
#
# Disc length: 3055 seconds
#
# Revision: 0
# Processed by: cddbd v1.5.2PL0 Copyright (c) Steve Scherf et al.
# Submitted via: EasyCDDAExtractor 10.5.1.1
#
DISCID=b90bed0e
DTITLE=Sunny Hawkins - More Of You
DYEAR=2007
DGENRE=Gospel
TTITLE0=Send Me I'll Go (Introlude)
TTITLE1=More Of You
TTITLE2=Daddy's Got You Now
TTITLE3=Where Would I Be
TTITLE4=I'ts Like Air
TTITLE5=Jesus The Same
TTITLE6=What A Man
TTITLE7=You're Everything
TTITLE8=Yesterday Today (Interlude)
TTITLE9=Love Me Too
TTITLE10=Alright
TTITLE11=What If
TTITLE12=Crazy (To Jamie)
TTITLE13=What A Man (Reprise)
EXTD=
EXTT0=
EXTT1=
EXTT2=
EXTT3=
EXTT4=
EXTT5=
EXTT6=
EXTT7=
EXTT8=
EXTT9=
EXTT10=
EXTT11=
EXTT12=
EXTT13=
PLAYORDER=
